<?xml version="1.0" encoding="UTF-8" standalone="no"?>
<svg
   width="3.5in"
   height="2in"
   viewBox="0 0 350 200"
   version="1.1"
   id="svg8"
   sodipodi:docname="pricetra-for-business-front.svg"
   xml:space="preserve"
   inkscape:version="1.4.2 (ebf0e940d0, 2025-05-08)"
   inkscape:export-filename="pricetra-for-business.pdf"
   inkscape:export-xdpi="96"
   inkscape:export-ydpi="96"
   xmlns:inkscape="http://www.inkscape.org/namespaces/inkscape"
   xmlns:sodipodi="http://sodipodi.sourceforge.net/DTD/sodipodi-0.dtd"
   xmlns="http://www.w3.org/2000/svg"
   xmlns:svg="http://www.w3.org/2000/svg"><defs
     id="defs8"><rect
       x="400.07159"
       y="49.546761"
       width="223.69994"
       height="165.64886"
       id="rect22" /><rect
       x="250.32207"
       y="-114.99285"
       width="269.17941"
       height="135.69896"
       id="rect13" /><rect
       x="299.12933"
       y="-90.219475"
       width="313.54965"
       height="115.73236"
       id="rect12" /><rect
       id="p"
       width="8"
       height="8"
       x="0"
       y="0" /></defs><sodipodi:namedview
     id="namedview8"
     pagecolor="#505050"
     bordercolor="#eeeeee"
     borderopacity="1"
     inkscape:showpageshadow="0"
     inkscape:pageopacity="0"
     inkscape:pagecheckerboard="0"
     inkscape:deskcolor="#505050"
     inkscape:document-units="in"
     showguides="true"
     inkscape:zoom="1.5009403"
     inkscape:cx="186.54972"
     inkscape:cy="102.60235"
     inkscape:window-width="2560"
     inkscape:window-height="1347"
     inkscape:window-x="1920"
     inkscape:window-y="56"
     inkscape:window-maximized="0"
     inkscape:current-layer="layer3" /><!-- ===================== --><!-- FRONT SIDE (Left) --><!-- ===================== --><!-- Logo Placeholder --><!-- Name --><!-- Title --><!-- Brand --><!-- ===================== --><!-- BACK SIDE (Right) --><!-- ===================== --><!-- Accent Bar --><!-- Contact Info --><g
     inkscape:groupmode="layer"
     id="layer3"
     inkscape:label="front"><rect
       x="0"
       y="0"
       width="350"
       height="200"
       fill="#0f172a"
       rx="12"
       id="rect1"
       style="fill:#ffffff"
       inkscape:label="card" /><path
       d="m 40.808454,168.38238 v -10.99749 h 1.238524 v 1.16391 h 0.01492 q 0.253674,-0.4402 0.641645,-0.73118 0.387971,-0.29098 0.865474,-0.43273 0.477503,-0.14922 0.98485,-0.14922 1.029617,0 1.798098,0.5148 0.768482,0.51481 1.193758,1.43997 0.425276,0.91771 0.425276,2.13385 0,1.20868 -0.425276,2.13384 -0.425276,0.9177 -1.193758,1.43997 -0.768481,0.51481 -1.798098,0.51481 -0.507347,0 -0.962467,-0.14922 -0.45512,-0.14176 -0.83563,-0.4402 -0.380511,-0.29844 -0.664028,-0.75356 h -0.01492 v 4.31245 z m 3.55143,-4.111 q 0.686411,0 1.20868,-0.33575 0.522269,-0.33574 0.820708,-0.99231 0.29844,-0.65657 0.29844,-1.61903 0,-0.96993 -0.29844,-1.6265 -0.298439,-0.65657 -0.820708,-0.99231 -0.522269,-0.33574 -1.20868,-0.33574 -0.731177,0 -1.268368,0.36558 -0.537191,0.36559 -0.828169,1.02962 -0.290979,0.66403 -0.290979,1.55935 0,0.88785 0.290979,1.55188 0.290978,0.66403 0.828169,1.02962 0.537191,0.36559 1.268368,0.36559 z m 5.088392,0.99231 v -7.8788 h 1.20868 v 1.23852 h 0.02984 q 0.216369,-0.6118 0.686411,-0.98485 0.470042,-0.37305 1.20868,-0.37305 0.171602,0 0.313361,0.0149 0.14922,0.0149 0.22383,0.0299 v 1.26836 q -0.07461,-0.0224 -0.290979,-0.0522 -0.208908,-0.0373 -0.484964,-0.0373 -0.432737,0 -0.805787,0.20145 -0.373049,0.20144 -0.596878,0.62672 -0.22383,0.42528 -0.22383,1.09677 v 4.84964 z m 4.924252,0 v -7.8788 h 1.268368 v 7.8788 z m 0.634184,-9.41577 q -0.358128,0 -0.611801,-0.25367 -0.253674,-0.25367 -0.253674,-0.6118 0,-0.35813 0.253674,-0.6118 0.253673,-0.25368 0.611801,-0.25368 0.358127,0 0.611801,0.25368 0.253673,0.25367 0.253673,0.6118 0,0.35813 -0.253673,0.6118 -0.253674,0.25367 -0.611801,0.25367 z m 5.767341,9.59483 q -1.089304,0 -1.917474,-0.52227 -0.820708,-0.52973 -1.283289,-1.45489 -0.455121,-0.92516 -0.455121,-2.12638 0,-1.20868 0.455121,-2.1413 0.462581,-0.93263 1.283289,-1.46236 0.82817,-0.52973 1.917474,-0.52973 0.671488,0 1.238523,0.20891 0.574496,0.20145 1.007234,0.5745 0.440198,0.36558 0.716254,0.86547 0.276057,0.49989 0.358128,1.09676 h -1.28329 q -0.06715,-0.35066 -0.231291,-0.64164 -0.164141,-0.29098 -0.425276,-0.49989 -0.253673,-0.21636 -0.596879,-0.33574 -0.343205,-0.11938 -0.783403,-0.11938 -0.738638,0 -1.275829,0.37305 -0.52973,0.36559 -0.813247,1.03708 -0.283518,0.67149 -0.283518,1.57427 0,0.89532 0.283518,1.55934 0.283517,0.66403 0.813247,1.02962 0.52973,0.36559 1.275829,0.36559 0.440198,0 0.775942,-0.11192 0.335745,-0.11191 0.574496,-0.32082 0.246213,-0.21637 0.410354,-0.50735 0.164142,-0.29843 0.253674,-0.65656 h 1.305673 q -0.08207,0.58195 -0.358128,1.08184 -0.276056,0.49989 -0.716254,0.87294 -0.440199,0.37305 -1.014695,0.58195 -0.567035,0.20891 -1.231062,0.20891 z m 7.990717,0 q -1.156453,0 -1.977162,-0.52973 -0.813247,-0.52973 -1.245984,-1.45489 -0.432738,-0.93262 -0.432738,-2.11892 0,-1.20122 0.455121,-2.13384 0.45512,-0.93263 1.260906,-1.46236 0.805787,-0.53719 1.850325,-0.53719 0.820708,0 1.477275,0.29844 0.664028,0.29844 1.13407,0.85055 0.470042,0.55212 0.716255,1.31314 0.253673,0.75356 0.253673,1.67126 v 0.35066 h -6.476136 v -1.0893 h 5.767342 l -0.544652,0.38051 q 0,-0.80579 -0.290978,-1.3952 -0.283517,-0.59688 -0.805786,-0.9177 -0.52227,-0.32829 -1.231063,-0.32829 -0.701333,0 -1.223602,0.32829 -0.514808,0.32082 -0.805786,0.9177 -0.283518,0.58941 -0.283518,1.3952 v 0.53719 q 0,0.81325 0.276057,1.43997 0.283517,0.62673 0.820708,0.98485 0.537191,0.35067 1.305673,0.35067 0.559574,0 0.98485,-0.1716 0.425276,-0.17907 0.701333,-0.49243 0.283517,-0.31336 0.402893,-0.72371 h 1.268367 q -0.149219,0.75356 -0.619261,1.32805 -0.470043,0.56704 -1.178836,0.88786 -0.701333,0.32082 -1.559346,0.32082 z m 8.378688,-8.05786 v 1.0893 h -4.267684 v -1.0893 z m -2.865019,-2.14877 h 1.268368 v 8.11755 q 0,0.45512 0.186524,0.64165 0.193986,0.17906 0.67895,0.17906 0.171603,0 0.365588,0 0.201447,0 0.365589,0 v 1.08931 q -0.193986,0 -0.425276,0 -0.231291,0 -0.425277,0 -1.014694,0 -1.51458,-0.4402 -0.499886,-0.44766 -0.499886,-1.33552 z m 4.178151,10.02757 v -7.8788 h 1.20868 v 1.23852 h 0.02984 q 0.216369,-0.6118 0.686411,-0.98485 0.470042,-0.37305 1.20868,-0.37305 0.171602,0 0.313361,0.0149 0.14922,0.0149 0.22383,0.0299 v 1.26836 q -0.07461,-0.0224 -0.290979,-0.0522 -0.208907,-0.0373 -0.484964,-0.0373 -0.432737,0 -0.805786,0.20145 -0.37305,0.20144 -0.596879,0.62672 -0.22383,0.42528 -0.22383,1.09677 v 4.84964 z m 7.087939,0.11937 q -0.783403,0 -1.402665,-0.26859 -0.619262,-0.2686 -0.98485,-0.79833 -0.358128,-0.53719 -0.358128,-1.32059 0,-0.67895 0.261135,-1.10423 0.268595,-0.42527 0.708793,-0.66403 0.44766,-0.24621 1.007234,-0.37305 0.567035,-0.12683 1.156452,-0.20144 0.75356,-0.10446 1.186297,-0.15668 0.432737,-0.0522 0.611801,-0.17161 0.186525,-0.11937 0.186525,-0.41781 v -0.0746 q 0,-0.43274 -0.208908,-0.76102 -0.201446,-0.33575 -0.596879,-0.52227 -0.387971,-0.19399 -0.940084,-0.19399 -0.544652,0 -0.969928,0.18653 -0.417815,0.17906 -0.671489,0.49242 -0.246213,0.31337 -0.276056,0.7088 h -1.290751 q 0.03731,-0.72372 0.447659,-1.28329 0.410354,-0.56704 1.119148,-0.89532 0.708794,-0.32828 1.641417,-0.32828 0.686411,0 1.238524,0.18652 0.559574,0.18653 0.947545,0.52973 0.395432,0.34321 0.60434,0.82071 0.208907,0.4775 0.208907,1.05946 v 5.4316 h -1.253445 v -1.11915 h -0.02984 q -0.141759,0.28352 -0.417815,0.5745 -0.276057,0.28351 -0.746099,0.4775 -0.462581,0.18652 -1.178836,0.18652 z m 0.179064,-1.13407 q 0.775942,0 1.260906,-0.27605 0.484965,-0.28352 0.708794,-0.73118 0.22383,-0.44766 0.22383,-0.96247 v -0.98485 q -0.07461,0.0671 -0.276057,0.12684 -0.193985,0.0597 -0.484964,0.11937 -0.283517,0.0522 -0.619262,0.10446 -0.328283,0.0522 -0.664027,0.097 -0.455121,0.0597 -0.865475,0.20891 -0.402893,0.14176 -0.656567,0.41035 -0.253673,0.26114 -0.253673,0.7088 0,0.36559 0.193985,0.63418 0.201447,0.26114 0.567035,0.40289 0.365589,0.14176 0.865475,0.14176 z m 6.065782,1.14153 q -0.387971,0 -0.664028,-0.26859 -0.268595,-0.27606 -0.268595,-0.66403 0,-0.39543 0.268595,-0.66403 0.276057,-0.26859 0.664028,-0.26859 0.395432,0 0.664028,0.26859 0.268595,0.2686 0.268595,0.66403 0,0.38797 -0.268595,0.66403 -0.268596,0.26859 -0.664028,0.26859 z m 5.871793,0.0522 q -1.089304,0 -1.917473,-0.52227 -0.820709,-0.52973 -1.28329,-1.45489 -0.45512,-0.92516 -0.45512,-2.12638 0,-1.20868 0.45512,-2.1413 0.462581,-0.93263 1.28329,-1.46236 0.828169,-0.52973 1.917473,-0.52973 0.671489,0 1.238524,0.20891 0.574496,0.20145 1.007233,0.5745 0.440195,0.36558 0.716255,0.86547 0.27606,0.49989 0.35813,1.09676 h -1.283293 q -0.06715,-0.35066 -0.23129,-0.64164 -0.164142,-0.29098 -0.425276,-0.49989 -0.253674,-0.21636 -0.596879,-0.33574 -0.343206,-0.11938 -0.783404,-0.11938 -0.738637,0 -1.275828,0.37305 -0.529731,0.36559 -0.813248,1.03708 -0.283517,0.67149 -0.283517,1.57427 0,0.89532 0.283517,1.55934 0.283517,0.66403 0.813248,1.02962 0.52973,0.36559 1.275828,0.36559 0.440198,0 0.775943,-0.11192 0.335744,-0.11191 0.574496,-0.32082 0.246212,-0.21637 0.410354,-0.50735 0.164142,-0.29843 0.253673,-0.65656 h 1.305676 q -0.0821,0.58195 -0.35813,1.08184 -0.27606,0.49989 -0.716255,0.87294 -0.440198,0.37305 -1.014694,0.58195 -0.567035,0.20891 -1.231063,0.20891 z m 7.990722,0 q -1.08931,0 -1.91748,-0.52227 -0.8207,-0.52973 -1.28329,-1.45489 -0.45512,-0.92516 -0.45512,-2.12638 0,-1.20868 0.45512,-2.1413 0.46259,-0.93263 1.28329,-1.46236 0.82817,-0.52973 1.91748,-0.52973 1.09676,0 1.91747,0.52973 0.82071,0.52973 1.27583,1.46236 0.46258,0.93262 0.46258,2.1413 0,1.20122 -0.46258,2.12638 -0.45512,0.92516 -1.27583,1.45489 -0.82071,0.52227 -1.91747,0.52227 z m 0,-1.14899 q 0.7461,0 1.27583,-0.36559 0.52973,-0.36559 0.81324,-1.02962 0.28352,-0.67148 0.28352,-1.55934 0,-0.90278 -0.28352,-1.56681 -0.28351,-0.67149 -0.81324,-1.04454 -0.52973,-0.37305 -1.27583,-0.37305 -0.73864,0 -1.27583,0.37305 -0.52973,0.36559 -0.81325,1.03708 -0.28352,0.67149 -0.28352,1.57427 0,0.89532 0.28352,1.55934 0.28352,0.66403 0.81325,1.02962 0.52973,0.36559 1.27583,0.36559 z m 5.13316,0.96993 v -7.8788 h 1.23852 v 1.61157 h -0.15668 q 0.23129,-0.5745 0.60434,-0.96247 0.38051,-0.39543 0.86547,-0.59688 0.48497,-0.20144 1.02216,-0.20144 0.92516,0 1.56681,0.52973 0.6491,0.52226 0.80578,1.23106 h -0.26113 q 0.1716,-0.48497 0.53719,-0.8804 0.36559,-0.40289 0.89532,-0.64164 0.53719,-0.23875 1.20122,-0.23875 0.72371,0 1.31313,0.31336 0.59688,0.31336 0.94755,0.94754 0.35812,0.63419 0.35812,1.60411 v 5.16301 h -1.26836 v -5.16301 q 0,-0.9177 -0.51481,-1.30567 -0.51481,-0.39543 -1.19376,-0.39543 -0.5745,0 -0.99231,0.23875 -0.41782,0.23875 -0.64165,0.65657 -0.22383,0.41781 -0.22383,0.955 v 5.01379 h -1.26836 v -5.2973 q 0,-0.7088 -0.47751,-1.13407 -0.47004,-0.43274 -1.18629,-0.43274 -0.49243,0 -0.93263,0.23129 -0.43273,0.23129 -0.70133,0.69387 -0.26859,0.45512 -0.26859,1.13407 v 4.80488 z"
       id="text4"
       style="font-size:15.2801px;font-family:Inter, Arial, sans-serif;fill:#396a12;stroke-width:1.27334"
       inkscape:label="link"
       aria-label="pricetra.com" /><g
       id="text2"
       style="font-weight:bold;font-size:22px;font-family:Inter;-inkscape-font-specification:'Inter Bold';fill:#1a1a1a"
       inkscape:label="heading"
       aria-label="Help customers find&#10;Your Store. Online."><path
         style="font-weight:800;-inkscape-font-specification:'Inter Ultra-Bold'"
         d="M 41.785988,102.31686 V 86.310997 h 3.867187 v 6.219727 h 6.090821 v -6.219727 h 3.867187 v 16.005863 h -3.867187 v -6.499027 h -6.090821 v 6.499027 z m 21.258789,0.25781 q -1.740234,0 -3.061524,-0.75195 -1.310546,-0.7627 -2.051757,-2.105473 -0.730469,-1.342773 -0.730469,-3.072266 0,-1.729492 0.730469,-3.072265 0.741211,-1.342774 2.041015,-2.094727 1.299805,-0.762695 2.975586,-0.762695 1.278321,0 2.331055,0.429687 1.052734,0.418946 1.81543,1.203125 0.773437,0.78418 1.192382,1.858399 0.418946,1.063476 0.418946,2.352539 v 0.999023 H 58.404152 v -2.21289 h 8.572266 l -1.697266,0.451172 q 0,-0.730469 -0.268555,-1.256836 -0.268554,-0.526368 -0.773437,-0.805664 -0.494141,-0.290039 -1.192383,-0.290039 -0.698242,0 -1.203125,0.290039 -0.494141,0.279296 -0.773438,0.805664 -0.268554,0.526367 -0.268554,1.256836 v 1.632812 q 0,0.751953 0.279297,1.321289 0.290039,0.558594 0.816406,0.859375 0.537109,0.300781 1.27832,0.300781 0.547852,0 0.977539,-0.15039 0.429688,-0.150391 0.719727,-0.429688 0.290039,-0.279297 0.429687,-0.644531 h 3.319336 q -0.204101,1.138672 -0.988281,2.019533 -0.78418,0.87012 -1.976563,1.375 -1.18164,0.49414 -2.610351,0.49414 z M 73.948097,86.310997 V 102.31686 H 70.252785 V 86.310997 Z m 2.0625,20.496093 V 90.973106 h 3.652344 v 1.482422 h 0.05371 q 0.333008,-0.580078 0.816406,-0.956054 0.483399,-0.386719 1.095703,-0.580079 0.623047,-0.193359 1.353516,-0.193359 1.439453,0 2.535156,0.751953 1.095703,0.741211 1.708008,2.073242 0.623047,1.332032 0.623047,3.072266 0,1.793945 -0.612305,3.136719 -0.601562,1.332034 -1.697265,2.073244 -1.095704,0.73047 -2.588868,0.73047 -0.751953,0 -1.364257,-0.22559 -0.612305,-0.21484 -1.084961,-0.64453 -0.461914,-0.42969 -0.751954,-1.06348 h -0.04297 v 6.17676 z m 5.897461,-7.197265 q 0.6875,0 1.181641,-0.354492 0.49414,-0.365234 0.751953,-1.03125 0.268555,-0.666016 0.268555,-1.600586 0,-0.923828 -0.268555,-1.579102 -0.257813,-0.666015 -0.751953,-1.020507 -0.494141,-0.354493 -1.181641,-0.354493 -0.6875,0 -1.224609,0.365235 -0.526367,0.365234 -0.827149,1.03125 -0.300781,0.655273 -0.300781,1.557617 0,0.913086 0.300781,1.579102 0.300782,0.666015 0.827149,1.041992 0.537109,0.365234 1.224609,0.365234 z m 17.327149,2.964845 q -1.750977,0 -3.072266,-0.74121 -1.321289,-0.75196 -2.0625,-2.083986 -0.730469,-1.332032 -0.730469,-3.104493 0,-1.761718 0.730469,-3.09375 0.741211,-1.342773 2.0625,-2.083984 1.321289,-0.751953 3.072266,-0.751953 1.181643,0 2.169923,0.34375 0.99902,0.34375 1.72949,0.977539 0.74121,0.623047 1.1709,1.493164 0.42969,0.859375 0.49414,1.901367 h -3.56641 q -0.043,-0.397461 -0.19336,-0.730469 -0.15039,-0.333007 -0.4082,-0.569335 -0.24707,-0.236329 -0.58008,-0.354493 -0.333005,-0.128906 -0.741208,-0.128906 -0.6875,0 -1.181641,0.365234 -0.49414,0.354493 -0.751953,1.03125 -0.257812,0.676758 -0.257812,1.600586 0,0.923829 0.257812,1.600586 0.257813,0.676758 0.751953,1.041993 0.494141,0.354492 1.181641,0.354492 0.408203,0 0.741208,-0.118164 0.33301,-0.128907 0.56934,-0.365235 0.24707,-0.24707 0.39746,-0.580078 0.15039,-0.34375 0.2041,-0.751953 h 3.57715 q -0.0322,1.041992 -0.45117,1.912109 -0.41895,0.859379 -1.16016,1.503909 -0.74121,0.63379 -1.75097,0.98828 -0.99903,0.34375 -2.202153,0.34375 z m 11.010743,-0.0107 q -1.22461,0 -2.10547,-0.52637 -0.87012,-0.53711 -1.33203,-1.53613 -0.46192,-0.999027 -0.46192,-2.395511 v -7.132813 h 3.69532 v 6.359375 q 0,0.999024 0.4834,1.536133 0.49414,0.53711 1.36425,0.53711 0.58008,0 1.00977,-0.247071 0.44043,-0.24707 0.67676,-0.741211 0.23633,-0.504882 0.23633,-1.27832 v -6.166016 h 3.69531 v 11.343754 h -3.65235 v -3.040043 h 0.54786 q -0.52637,1.493163 -1.5254,2.395513 -0.98828,0.8916 -2.63183,0.8916 z m 14.33008,0.0322 q -1.56836,0 -2.78223,-0.47265 -1.21387,-0.47266 -1.93359,-1.35352 -0.71973,-0.880858 -0.82715,-2.083983 h 3.6416 q 0.0859,0.623047 0.55859,0.999023 0.4834,0.36523 1.28907,0.36523 0.76269,0 1.19238,-0.26855 0.42969,-0.268555 0.42969,-0.698242 0,-0.375977 -0.3545,-0.601563 -0.34375,-0.236328 -1.0205,-0.354492 l -2.05176,-0.365234 q -1.67578,-0.300781 -2.55664,-1.149414 -0.87012,-0.848633 -0.87012,-2.191406 0,-1.117188 0.60156,-1.944336 0.61231,-0.827149 1.75098,-1.278321 1.14941,-0.461914 2.72852,-0.461914 1.58984,0 2.75,0.483399 1.16015,0.472656 1.80468,1.353515 0.65528,0.870118 0.6875,2.083985 h -3.40527 q -0.0107,-0.601563 -0.49414,-0.988282 -0.47266,-0.39746 -1.21387,-0.39746 -0.71972,0 -1.12793,0.279296 -0.39746,0.279297 -0.39746,0.698243 0,0.354492 0.32227,0.59082 0.32226,0.236328 0.90234,0.34375 l 2.27734,0.418945 q 1.76172,0.322266 2.58887,1.074219 0.83789,0.751953 0.83789,2.019531 0,1.160156 -0.67676,2.041011 -0.66601,0.88086 -1.86914,1.375 -1.19238,0.4834 -2.78222,0.4834 z M 138.7772,90.973106 v 2.857422 h -7.9707 v -2.857422 z m -6.03711,-3.09375 h 3.70605 V 98.50338 q 0,0.547851 0.21485,0.751953 0.21484,0.204102 0.83789,0.204102 0.2793,0 0.6875,0 0.4082,0 0.59082,0 v 2.857425 q -0.29004,0 -0.88086,0 -0.59082,0 -1.21387,0 -2.04101,0 -2.99707,-0.7627 -0.94531,-0.77344 -0.94531,-2.427733 z m 12.88634,14.695314 q -1.77246,0 -3.12597,-0.73047 -1.34278,-0.73047 -2.09473,-2.0625 -0.75195,-1.332031 -0.75195,-3.136719 0,-1.793945 0.75195,-3.125976 0.75195,-1.332031 2.09473,-2.0625 1.35351,-0.741211 3.12597,-0.741211 1.78321,0 3.11524,0.741211 1.34277,0.730469 2.09473,2.0625 0.75195,1.332031 0.75195,3.125976 0,1.804688 -0.75195,3.136719 -0.75196,1.33203 -2.09473,2.0625 -1.33203,0.73047 -3.11524,0.73047 z m 0,-2.94336 q 0.64454,0 1.13868,-0.34375 0.50488,-0.354493 0.79492,-1.020508 0.29004,-0.666016 0.29004,-1.622071 0,-0.956054 -0.29004,-1.62207 -0.29004,-0.666016 -0.79492,-1.009766 -0.49414,-0.354492 -1.13868,-0.354492 -0.64453,0 -1.14941,0.354492 -0.50488,0.34375 -0.79492,1.009766 -0.2793,0.666016 -0.2793,1.62207 0,0.956055 0.2793,1.622071 0.29004,0.666015 0.79492,1.020508 0.50488,0.34375 1.14941,0.34375 z m 7.55176,2.68555 V 90.973106 h 3.55567 v 2.642579 h -0.17188 q 0.2793,-0.988282 0.82715,-1.622071 0.54785,-0.644531 1.27832,-0.956054 0.73047,-0.311524 1.53613,-0.311524 1.28907,0 2.25586,0.751953 0.9668,0.741211 1.16016,2.137696 h -0.32227 q 0.2041,-0.934571 0.7627,-1.579102 0.55859,-0.644531 1.35351,-0.977539 0.80567,-0.333008 1.71875,-0.333008 1.11719,0 1.97657,0.483399 0.87011,0.483398 1.36425,1.396484 0.49414,0.902344 0.49414,2.15918 v 7.551761 h -3.70605 v -6.735355 q 0,-0.891602 -0.4834,-1.375 -0.47265,-0.483399 -1.22461,-0.483399 -0.51562,0 -0.90234,0.236329 -0.38672,0.236328 -0.60156,0.666015 -0.21485,0.429688 -0.21485,1.009766 v 6.681644 h -3.53418 v -6.778324 q 0,-0.827148 -0.46191,-1.321289 -0.46192,-0.494141 -1.22461,-0.494141 -0.49414,0 -0.8916,0.236329 -0.38672,0.236328 -0.62305,0.676757 -0.22559,0.44043 -0.22559,1.074219 v 6.606449 z m 25.21192,0.25781 q -1.74023,0 -3.06152,-0.75195 -1.31055,-0.7627 -2.05176,-2.105473 -0.73047,-1.342773 -0.73047,-3.072266 0,-1.729492 0.73047,-3.072265 0.74121,-1.342774 2.04102,-2.094727 1.2998,-0.762695 2.97558,-0.762695 1.27832,0 2.33106,0.429687 1.05273,0.418946 1.81543,1.203125 0.77344,0.78418 1.19238,1.858399 0.41895,1.063476 0.41895,2.352539 v 0.999023 h -10.30176 v -2.21289 h 8.57226 l -1.69726,0.451172 q 0,-0.730469 -0.26856,-1.256836 -0.26855,-0.526368 -0.77343,-0.805664 -0.49414,-0.290039 -1.19239,-0.290039 -0.69824,0 -1.20312,0.290039 -0.49414,0.279296 -0.77344,0.805664 -0.26855,0.526367 -0.26855,1.256836 v 1.632812 q 0,0.751953 0.27929,1.321289 0.29004,0.558594 0.81641,0.859375 0.53711,0.300781 1.27832,0.300781 0.54785,0 0.97754,-0.15039 0.42969,-0.150391 0.71973,-0.429688 0.29003,-0.279297 0.42968,-0.644531 h 3.31934 q -0.2041,1.138672 -0.98828,2.019533 -0.78418,0.87012 -1.97656,1.375 -1.18165,0.49414 -2.61036,0.49414 z m 7.20801,-0.25781 V 90.973106 h 3.57715 v 1.998047 h 0.0322 q 0.31152,-1.084961 0.96679,-1.557617 0.66602,-0.483398 1.80469,-0.483398 0.30078,0 0.53711,0.01074 0.24707,0 0.47266,0.01074 v 3.050781 q -0.2041,-0.01074 -0.63379,-0.02148 -0.41895,-0.01074 -0.82715,-0.01074 -0.65527,0 -1.16016,0.300781 -0.50488,0.290039 -0.79492,0.859375 -0.2793,0.569336 -0.2793,1.375 v 5.811527 z m 13.66406,0.27929 q -1.56836,0 -2.78222,-0.47265 -1.21387,-0.47266 -1.9336,-1.35352 -0.71972,-0.880858 -0.82714,-2.083983 h 3.6416 q 0.0859,0.623047 0.55859,0.999023 0.4834,0.36523 1.28906,0.36523 0.7627,0 1.19239,-0.26855 0.42968,-0.268555 0.42968,-0.698242 0,-0.375977 -0.35449,-0.601563 -0.34375,-0.236328 -1.02051,-0.354492 l -2.05175,-0.365234 q -1.67579,-0.300781 -2.55664,-1.149414 -0.87012,-0.848633 -0.87012,-2.191406 0,-1.117188 0.60156,-1.944336 0.61231,-0.827149 1.75098,-1.278321 1.14941,-0.461914 2.72851,-0.461914 1.58985,0 2.75,0.483399 1.16016,0.472656 1.80469,1.353515 0.65527,0.870118 0.6875,2.083985 H 200.895 q -0.0108,-0.601563 -0.49414,-0.988282 -0.47266,-0.39746 -1.21387,-0.39746 -0.71973,0 -1.12793,0.279296 -0.39746,0.279297 -0.39746,0.698243 0,0.354492 0.32226,0.59082 0.32227,0.236328 0.90235,0.34375 l 2.27734,0.418945 q 1.76172,0.322266 2.58887,1.074219 0.83789,0.751953 0.83789,2.019531 0,1.160156 -0.67676,2.041011 -0.66601,0.88086 -1.86914,1.375 -1.19238,0.4834 -2.78223,0.4834 z m 18.50879,-11.623044 v 2.857422 h -8.09961 v -2.857422 z m -6.03711,11.343754 V 89.71627 q 0,-1.149414 0.42969,-1.901367 0.44043,-0.762695 1.31055,-1.127929 0.88086,-0.375977 2.23437,-0.375977 0.64453,0 1.23535,0 0.59083,0 0.82715,0 v 2.857422 q -0.15039,0 -0.50488,0 -0.35449,0 -0.62305,0 -0.65527,0 -0.93457,0.268555 -0.26855,0.268554 -0.26855,0.923828 v 11.956058 z m 7.49805,0 V 90.973106 h 3.69531 v 11.343754 z m 1.83691,-12.450199 q -0.8916,0 -1.46093,-0.526367 -0.56934,-0.526367 -0.56934,-1.342774 0,-0.816406 0.56934,-1.332031 0.56933,-0.526367 1.46093,-0.526367 0.89161,0 1.46094,0.526367 0.58008,0.515625 0.58008,1.332031 0,0.816407 -0.58008,1.342774 -0.56933,0.526367 -1.46094,0.526367 z m 7.61622,6.28418 v 6.166019 h -3.69532 V 90.973106 h 3.65235 v 3.040039 h -0.54785 q 0.52636,-1.503906 1.52539,-2.395507 0.99902,-0.891602 2.63183,-0.891602 1.23535,0 2.10547,0.537109 0.87012,0.526368 1.33203,1.525391 0.46192,0.999024 0.46192,2.395508 v 7.132816 h -3.69532 v -6.359379 q 0,-1.009765 -0.48339,-1.536132 -0.4834,-0.53711 -1.36426,-0.53711 -0.58008,0 -1.02051,0.247071 -0.42969,0.24707 -0.66602,0.751953 -0.23632,0.49414 -0.23632,1.267578 z m 13.96484,6.413089 q -1.48242,0 -2.58887,-0.73047 -1.10644,-0.74121 -1.71875,-2.073244 -0.60156,-1.342774 -0.60156,-3.136719 0,-1.740234 0.62305,-3.072266 0.62304,-1.332031 1.71875,-2.073242 1.0957,-0.751953 2.53515,-0.751953 0.74121,0 1.34278,0.193359 0.60156,0.19336 1.07422,0.590821 0.48339,0.386719 0.83789,0.988281 h 0.0107 v -6.1875 h 3.70605 v 16.005863 h -3.66308 v -1.75098 h -0.0108 q -0.29003,0.66602 -0.77343,1.11719 -0.4834,0.44043 -1.11719,0.65527 -0.63379,0.22559 -1.375,0.22559 z m 1.03125,-2.954105 q 0.70898,0 1.23535,-0.365234 0.52637,-0.375977 0.81641,-1.041992 0.30078,-0.666016 0.30078,-1.579102 0,-0.902344 -0.30078,-1.557617 -0.29004,-0.666016 -0.81641,-1.03125 -0.52637,-0.365235 -1.23535,-0.365235 -0.66602,0 -1.1709,0.354493 -0.49414,0.354492 -0.76269,1.020507 -0.25782,0.655274 -0.25782,1.579102 0,0.93457 0.25782,1.600586 0.26855,0.666016 0.76269,1.03125 0.50488,0.354492 1.1709,0.354492 z"
         id="path1" /><path
         style="font-style:italic;font-weight:800;-inkscape-font-specification:'Inter Ultra-Bold';fill:#5fae23"
         d="m 45.803566,129.81686 0.945312,-5.72559 -4.232421,-10.28027 h 4.253906 l 1.740234,4.65136 q 0.236328,0.61231 0.44043,1.22461 0.204101,0.61231 0.408203,1.22461 h -0.676758 q 0.375977,-0.6123 0.773438,-1.22461 0.397461,-0.6123 0.816406,-1.22461 l 3.19043,-4.65136 h 4.554687 l -7.519531,10.28027 -0.945313,5.72559 z m 13.494328,0.25781 q -1.611329,0 -2.792969,-0.60156 -1.170899,-0.61231 -1.81543,-1.70801 -0.633789,-1.10645 -0.633789,-2.61035 0,-1.47168 0.494141,-2.72852 0.49414,-1.26758 1.407226,-2.21289 0.923828,-0.94531 2.169922,-1.47168 1.256836,-0.52637 2.75,-0.52637 1.62207,0 2.792969,0.61231 1.170898,0.60156 1.804687,1.70801 0.644532,1.10644 0.644532,2.61035 0,1.39648 -0.472657,2.65332 -0.472656,1.24609 -1.364257,2.21289 -0.891602,0.9668 -2.15918,1.51465 -1.256836,0.54785 -2.825195,0.54785 z m 0.236328,-2.94336 q 0.708984,0 1.246093,-0.35449 0.547852,-0.36524 0.913086,-0.95606 0.365235,-0.59082 0.547852,-1.28906 0.182617,-0.70898 0.182617,-1.40723 0,-0.64453 -0.236328,-1.07422 -0.236328,-0.44042 -0.644531,-0.66601 -0.397461,-0.22559 -0.902344,-0.22559 -0.698242,0 -1.246094,0.36524 -0.537109,0.35449 -0.902344,0.94531 -0.365234,0.58008 -0.558593,1.28906 -0.182617,0.70899 -0.182617,1.41797 0,0.95606 0.515625,1.46094 0.515625,0.49414 1.267578,0.49414 z m 11.032226,2.93262 q -1.235351,0 -2.019531,-0.52637 -0.78418,-0.53711 -1.084961,-1.53613 -0.290039,-0.99903 -0.06445,-2.39551 l 1.181641,-7.13281 h 3.706054 l -1.063476,6.35937 q -0.161133,0.99902 0.236328,1.53613 0.397461,0.53711 1.267578,0.53711 0.59082,0 1.052734,-0.24707 0.472657,-0.24707 0.794922,-0.74121 0.322266,-0.50488 0.451172,-1.27832 l 1.020508,-6.16601 h 3.706055 l -1.879883,11.34375 h -3.652344 l 0.494141,-3.04004 h 0.547851 q -0.773437,1.49316 -1.922851,2.39551 -1.138672,0.8916 -2.771485,0.8916 z m 9.367188,-0.24707 1.879883,-11.34375 h 3.577148 l -0.333008,1.99804 h 0.03223 q 0.49414,-1.08496 1.224609,-1.55761 0.741211,-0.4834 1.890625,-0.4834 0.290039,0 0.526367,0.0107 0.247071,0 0.472657,0.0107 l -0.504883,3.05078 q -0.19336,-0.0107 -0.623047,-0.0215 -0.429688,-0.0107 -0.837891,-0.0107 -0.655273,0 -1.203125,0.30078 -0.547851,0.29004 -0.923828,0.85937 -0.375976,0.56934 -0.515625,1.375 l -0.966797,5.81153 z m 19.572265,0.25781 q -2.169922,0 -3.598632,-0.66602 -1.428711,-0.66601 -2.030274,-1.90136 -0.601562,-1.2461 -0.311523,-2.97559 H 97.2393 q -0.09668,0.7627 0.171875,1.31055 0.279297,0.54785 0.891601,0.83789 0.623047,0.29004 1.536133,0.29004 0.827151,0 1.482421,-0.21485 0.65527,-0.22558 1.06348,-0.62304 0.41894,-0.39746 0.49414,-0.93457 0.0752,-0.44043 -0.12891,-0.77344 -0.2041,-0.34375 -0.75195,-0.60156 -0.53711,-0.25782 -1.47168,-0.45118 l -1.589845,-0.34375 q -2.255859,-0.47265 -3.297851,-1.68652 -1.041992,-1.21387 -0.741211,-3.04004 0.24707,-1.42871 1.181641,-2.49219 0.945312,-1.07421 2.40625,-1.66504 1.471679,-0.59082 3.297856,-0.59082 1.93359,0 3.26562,0.63379 1.34277,0.62305 1.95508,1.79395 0.6123,1.1709 0.38672,2.81445 h -3.56641 q 0.0752,-1.02051 -0.52637,-1.5791 -0.59082,-0.55859 -1.75097,-0.55859 -0.73047,0 -1.34278,0.22558 -0.601559,0.21485 -0.988278,0.60157 -0.375976,0.38671 -0.461914,0.8916 -0.07519,0.44043 0.118164,0.75195 0.19336,0.31152 0.698242,0.54785 0.504886,0.23633 1.385746,0.41895 l 1.375,0.29004 q 1.28906,0.26855 2.1914,0.6875 0.90235,0.41894 1.42871,1.00976 0.53711,0.59082 0.71973,1.36426 0.18262,0.77344 0.0215,1.75098 -0.24707,1.54687 -1.19238,2.64257 -0.93457,1.08496 -2.45996,1.66504 -1.51465,0.56934 -3.534179,0.56934 z m 17.208979,-11.60156 -0.4834,2.85742 h -7.9707 l 0.4834,-2.85742 z m -5.52148,-3.09375 h 3.70605 l -1.76172,10.62402 q -0.0859,0.54785 0.0967,0.75195 0.18262,0.2041 0.79493,0.2041 0.27929,0 0.6875,0 0.4082,0 0.60156,0 l -0.47266,2.85743 q -0.29004,0 -0.88086,0 -0.59082,0 -1.21387,0 -2.04101,0 -2.86816,-0.7627 -0.81641,-0.77344 -0.54785,-2.42773 z m 10.64123,14.69531 q -1.61133,0 -2.79297,-0.60156 -1.17089,-0.61231 -1.81543,-1.70801 -0.63378,-1.10645 -0.63378,-2.61035 0,-1.47168 0.49414,-2.72852 0.49414,-1.26758 1.40722,-2.21289 0.92383,-0.94531 2.16992,-1.47168 1.25684,-0.52637 2.75,-0.52637 1.62207,0 2.79297,0.61231 1.1709,0.60156 1.80469,1.70801 0.64453,1.10644 0.64453,2.61035 0,1.39648 -0.47265,2.65332 -0.47266,1.24609 -1.36426,2.21289 -0.8916,0.9668 -2.15918,1.51465 -1.25684,0.54785 -2.8252,0.54785 z m 0.23633,-2.94336 q 0.70899,0 1.24609,-0.35449 0.54786,-0.36524 0.91309,-0.95606 0.36524,-0.59082 0.54785,-1.28906 0.18262,-0.70898 0.18262,-1.40723 0,-0.64453 -0.23633,-1.07422 -0.23633,-0.44042 -0.64453,-0.66601 -0.39746,-0.22559 -0.90234,-0.22559 -0.69825,0 -1.2461,0.36524 -0.53711,0.35449 -0.90234,0.94531 -0.36524,0.58008 -0.55859,1.28906 -0.18262,0.70899 -0.18262,1.41797 0,0.95606 0.51562,1.46094 0.51563,0.49414 1.26758,0.49414 z m 7.17578,2.68555 1.87989,-11.34375 h 3.57714 l -0.333,1.99804 h 0.0322 q 0.49414,-1.08496 1.22461,-1.55761 0.74121,-0.4834 1.89063,-0.4834 0.29004,0 0.52636,0.0107 0.24707,0 0.47266,0.0107 l -0.50488,3.05078 q -0.19336,-0.0107 -0.62305,-0.0215 -0.42969,-0.0107 -0.83789,-0.0107 -0.65527,0 -1.20313,0.30078 -0.54785,0.29004 -0.92382,0.85937 -0.37598,0.56934 -0.51563,1.375 l -0.9668,5.81153 z m 14.24628,0.25781 q -1.77246,0 -3.0293,-0.63379 -1.24609,-0.63379 -1.82617,-1.89063 -0.58008,-1.26757 -0.33301,-3.14746 0.17188,-1.43945 0.75196,-2.57812 0.58007,-1.14942 1.49316,-1.95508 0.91309,-0.80566 2.09473,-1.22461 1.18164,-0.42969 2.56738,-0.42969 1.31055,0 2.37402,0.39746 1.07422,0.39747 1.69727,1.20313 0.62305,0.79492 0.62305,2.03027 0,1.26758 -0.71973,1.99805 -0.70899,0.71973 -2.0625,1.05273 -1.34277,0.33301 -3.26563,0.42969 -1.92285,0.0859 -4.33984,0.0859 l 0.36523,-2.2666 q 2.08399,0 3.38379,-0.0752 1.31055,-0.0859 2.00879,-0.23633 0.70899,-0.15039 0.9668,-0.38671 0.25781,-0.24707 0.25781,-0.5586 0,-0.46191 -0.42969,-0.71972 -0.42968,-0.25782 -1.24609,-0.25782 -0.91309,0 -1.46094,0.31153 -0.54785,0.31152 -0.84863,0.83789 -0.29004,0.52636 -0.41895,1.1709 -0.1289,0.63378 -0.19335,1.31054 -0.0859,0.82715 -0.0108,1.48242 0.0859,0.64454 0.51563,1.00977 0.44043,0.36523 1.38574,0.36523 0.97754,0 1.53613,-0.36523 0.5586,-0.37598 0.7627,-0.9668 h 3.42676 q -0.61231,1.80469 -2.1377,2.91114 -1.51465,1.0957 -3.88867,1.0957 z m 8.87305,-0.0537 q -0.91309,0 -1.46094,-0.66602 -0.53711,-0.67676 -0.37598,-1.60058 0.12891,-0.75196 0.74121,-1.26758 0.61231,-0.51563 1.38575,-0.51563 0.91308,0 1.45019,0.66602 0.53711,0.66601 0.38672,1.60058 -0.12891,0.74122 -0.74121,1.26758 -0.61231,0.51563 -1.38574,0.51563 z"
         id="path2" /><path
         style="font-weight:800;-inkscape-font-specification:'Inter Ultra-Bold'"
         d="m 168.55454,130.07467 q -2.16992,0 -3.91015,-0.97754 -1.7295,-0.98828 -2.73926,-2.83594 -1.00977,-1.84765 -1.00977,-4.43652 0,-2.61035 1.00977,-4.45801 1.00976,-1.8584 2.73926,-2.83594 1.74023,-0.97754 3.91015,-0.97754 2.16992,0 3.89942,0.97754 1.72949,0.97754 2.73925,2.83594 1.00977,1.84766 1.00977,4.45801 0,2.59961 -1.00977,4.44726 -1.00976,1.84766 -2.73925,2.8252 -1.7295,0.97754 -3.89942,0.97754 z m 0,-3.37305 q 1.14942,0 1.98731,-0.56933 0.84863,-0.58008 1.31054,-1.66504 0.46192,-1.09571 0.46192,-2.64258 0,-1.55762 -0.46192,-2.65332 -0.46191,-1.0957 -1.31054,-1.66504 -0.83789,-0.58008 -1.98731,-0.58008 -1.13867,0 -1.9873,0.58008 -0.84863,0.56934 -1.32129,1.66504 -0.46192,1.0957 -0.46192,2.65332 0,1.54687 0.46192,2.64258 0.47266,1.08496 1.32129,1.66504 0.84863,0.56933 1.9873,0.56933 z m 12.9336,-3.05078 v 6.16602 h -3.69532 v -11.34375 h 3.65235 v 3.04004 h -0.54785 q 0.52636,-1.50391 1.52539,-2.39551 0.99902,-0.8916 2.63183,-0.8916 1.23535,0 2.10547,0.53711 0.87012,0.52636 1.33203,1.52539 0.46192,0.99902 0.46192,2.3955 v 7.13282 h -3.69532 v -6.35938 q 0,-1.00976 -0.48339,-1.53613 -0.4834,-0.53711 -1.36426,-0.53711 -0.58008,0 -1.02051,0.24707 -0.42969,0.24707 -0.66602,0.75195 -0.23632,0.49414 -0.23632,1.26758 z m 13.22363,-9.83984 v 16.00586 h -3.69531 V 113.811 Z m 2.0625,16.00586 v -11.34375 h 3.69531 v 11.34375 z m 1.83691,-12.4502 q -0.8916,0 -1.46093,-0.52637 -0.56934,-0.52636 -0.56934,-1.34277 0,-0.81641 0.56934,-1.33203 0.56933,-0.52637 1.46093,-0.52637 0.8916,0 1.46094,0.52637 0.58008,0.51562 0.58008,1.33203 0,0.81641 -0.58008,1.34277 -0.56934,0.52637 -1.46094,0.52637 z m 7.61621,6.28418 v 6.16602 h -3.69531 v -11.34375 h 3.65235 v 3.04004 h -0.54786 q 0.52637,-1.50391 1.52539,-2.39551 0.99903,-0.8916 2.63184,-0.8916 1.23535,0 2.10547,0.53711 0.87012,0.52636 1.33203,1.52539 0.46191,0.99902 0.46191,2.3955 v 7.13282 h -3.69531 v -6.35938 q 0,-1.00976 -0.4834,-1.53613 -0.48339,-0.53711 -1.36425,-0.53711 -0.58008,0 -1.02051,0.24707 -0.42969,0.24707 -0.66602,0.75195 -0.23633,0.49414 -0.23633,1.26758 z m 14.89942,6.42383 q -1.74024,0 -3.06153,-0.75195 -1.31054,-0.7627 -2.05175,-2.10547 -0.73047,-1.34278 -0.73047,-3.07227 0,-1.72949 0.73047,-3.07226 0.74121,-1.34278 2.04101,-2.09473 1.29981,-0.7627 2.97559,-0.7627 1.27832,0 2.33105,0.42969 1.05274,0.41895 1.81543,1.20313 0.77344,0.78418 1.19239,1.85839 0.41894,1.06348 0.41894,2.35254 v 0.99903 h -10.30176 v -2.21289 h 8.57227 l -1.69727,0.45117 q 0,-0.73047 -0.26855,-1.25684 -0.26856,-0.52636 -0.77344,-0.80566 -0.49414,-0.29004 -1.19238,-0.29004 -0.69824,0 -1.20313,0.29004 -0.49414,0.2793 -0.77343,0.80566 -0.26856,0.52637 -0.26856,1.25684 v 1.63281 q 0,0.75195 0.2793,1.32129 0.29004,0.55859 0.8164,0.85938 0.53711,0.30078 1.27832,0.30078 0.54786,0 0.97754,-0.15039 0.42969,-0.15039 0.71973,-0.42969 0.29004,-0.2793 0.42969,-0.64453 h 3.31933 q -0.2041,1.13867 -0.98828,2.01953 -0.78418,0.87012 -1.97656,1.375 -1.18164,0.49414 -2.61035,0.49414 z m 8.98047,-0.0537 q -0.83789,0 -1.42871,-0.59082 -0.59082,-0.60156 -0.59082,-1.43946 0,-0.83789 0.59082,-1.42871 0.59082,-0.59082 1.42871,-0.59082 0.83789,0 1.42871,0.59082 0.59082,0.59082 0.59082,1.42871 0,0.8379 -0.59082,1.43946 -0.59082,0.59082 -1.42871,0.59082 z"
         id="path3" /></g><g
       id="g8"
       transform="matrix(0.25346417,0,0,0.25346417,40.808464,37.502684)"
       inkscape:label="logo"><g
         id="layer2"
         transform="translate(-155.0989,-165.07247)" /><g
         id="layer1"
         transform="translate(-155.0989,-165.07247)"><g
           id="g4"><g
             id="g94"
             transform="matrix(0.26458333,0,0,0.26458333,-2049.6382,-181.99009)"
             style="fill:#000000;fill-opacity:1;stroke-width:1.00157;stroke-dasharray:none"><path
               id="path87"
               d="m 6824.84,9063.7 c -118.57,0 -226.02,-90.77 -226.02,-255.64 0,-164.88 107.45,-255.66 226.02,-255.66 120.41,0 227.86,92.63 227.86,257.5 0,164.87 -107.45,253.8 -227.86,253.8 m 94.47,276.01 c 253.8,0 455.71,-203.76 455.71,-529.81 0,-326.03 -201.91,-533.52 -455.71,-533.52 -151.91,0 -261.2,72.24 -318.63,159.32 V 7798.44 H 6283.91 V 9324.9 h 316.77 v -146.37 c 57.43,90.79 166.72,161.18 318.63,161.18"
               style="fill:#000000;fill-opacity:1;fill-rule:nonzero;stroke:none;stroke-width:7.51181;stroke-dasharray:none"
               transform="matrix(0.13333333,0,0,-0.13333333,8060,2666.6667)" /><path
               id="path88"
               d="M 7858.51,8291.21 H 7541.73 V 9324.9 h 316.78 v -172.29 c 72.26,109.3 185.25,183.39 324.19,183.39 v -335.29 h -87.07 c -150.04,0 -237.12,-51.86 -237.12,-229.71"
               style="fill:#000000;fill-opacity:1;fill-rule:nonzero;stroke:none;stroke-width:7.51181;stroke-dasharray:none"
               transform="matrix(0.13333333,0,0,-0.13333333,8060,2666.6667)" /><path
               id="path89"
               d="m 8334.6,9324.9 h 316.77 V 8291.21 H 8334.6 Z m -29.64,277.86 c 0,96.33 75.96,172.3 188.96,172.3 111.14,0 187.1,-75.97 187.1,-172.3 0,-94.48 -75.96,-170.43 -187.1,-170.43 -113,0 -188.96,75.95 -188.96,170.43"
               style="fill:#000000;fill-opacity:1;fill-rule:nonzero;stroke:none;stroke-width:7.51181;stroke-dasharray:none"
               transform="matrix(0.13333333,0,0,-0.13333333,8060,2666.6667)" /><path
               id="path90"
               d="m 9336.81,9339.71 c 259.35,0 442.74,-142.64 496.46,-389.01 h -337.14 c -25.95,72.24 -77.81,118.56 -164.88,118.56 -113,0 -190.8,-88.93 -190.8,-261.2 0,-172.28 77.8,-261.2 190.8,-261.2 87.07,0 137.08,42.61 164.88,118.55 h 337.14 c -53.72,-238.96 -237.11,-389.03 -496.46,-389.03 -303.8,0 -518.7,203.79 -518.7,531.68 0,326.04 214.9,531.65 518.7,531.65"
               style="fill:#000000;fill-opacity:1;fill-rule:nonzero;stroke:none;stroke-width:7.51181;stroke-dasharray:none"
               transform="matrix(0.13333333,0,0,-0.13333333,8060,2666.6667)" /><path
               id="path91"
               d="m 10255.6,8908.09 h 396.5 c 0,113.01 -88.9,177.85 -194.5,177.85 -103.8,0 -183.4,-63 -202,-177.85 m 205.7,-631.71 c -303.8,0 -522.44,203.79 -522.44,531.67 0,327.9 214.94,531.66 522.44,531.66 301.9,0 515,-200.07 515,-514.97 0,-29.66 -1.9,-61.14 -5.6,-92.63 h -716.9 c 11.1,-135.24 94.5,-198.23 196.4,-198.23 88.9,0 138.9,44.46 164.8,100.03 h 337.2 c -50,-201.9 -233.4,-357.53 -490.9,-357.53"
               style="fill:#000000;fill-opacity:1;fill-rule:nonzero;stroke:none;stroke-width:7.51181;stroke-dasharray:none"
               transform="matrix(0.13333333,0,0,-0.13333333,8060,2666.6667)" /><path
               id="path92"
               d="m 11193,9061.86 h -126 v 263.05 h 126 v 251.91 h 316.8 v -251.91 h 207.5 v -263.05 h -207.5 v -414.97 c 0,-61.14 25.9,-87.07 96.3,-87.07 h 113 V 8291.21 H 11558 c -214.9,0 -365,90.77 -365,359.38"
               style="fill:#000000;fill-opacity:1;fill-rule:nonzero;stroke:none;stroke-width:7.51181;stroke-dasharray:none"
               transform="matrix(0.13333333,0,0,-0.13333333,8060,2666.6667)" /><path
               id="path93"
               d="m 12211.9,8291.21 h -316.8 V 9324.9 h 316.8 v -172.29 c 72.2,109.3 185.2,183.39 324.2,183.39 v -335.29 h -87.1 c -150.1,0 -237.1,-51.86 -237.1,-229.71"
               style="fill:#000000;fill-opacity:1;fill-rule:nonzero;stroke:none;stroke-width:7.51181;stroke-dasharray:none"
               transform="matrix(0.13333333,0,0,-0.13333333,8060,2666.6667)" /><path
               id="path94"
               d="m 13173.3,9063.7 c -118.5,0 -226,-88.93 -226,-253.8 0,-164.87 107.5,-257.5 226,-257.5 120.4,0 226,90.78 226,255.66 0,164.87 -105.6,255.64 -226,255.64 m -92.6,276.01 c 153.7,0 263,-70.39 318.6,-161.18 v 146.37 h 316.8 V 8291.21 h -316.8 v 146.34 c -57.4,-90.77 -166.7,-161.17 -320.5,-161.17 -251.9,0 -453.8,207.49 -453.8,533.52 0,326.05 201.9,529.81 455.7,529.81"
               style="fill:#000000;fill-opacity:1;fill-rule:nonzero;stroke:none;stroke-width:7.51181;stroke-dasharray:none"
               transform="matrix(0.13333333,0,0,-0.13333333,8060,2666.6667)" /></g><g
             id="g123"
             transform="matrix(0.26458333,0,0,0.26458333,-4398.1569,-89.486079)"
             style="stroke-width:1.00157;stroke-dasharray:none"><path
               id="path25-9"
               style="fill:#000000;fill-opacity:1;fill-rule:nonzero;stroke:none;stroke-width:1.00157;stroke-dasharray:none"
               d="m 17209.156,999.76341 3.738,10.37699 c 7.732,21.4651 28.095,35.7753 50.91,35.7754 h 28.747 l 53.007,147.0156 c 7.558,20.975 27.459,34.9551 49.754,34.9551 h 153.809 c 22.297,0 42.198,-13.9801 49.756,-34.9551 l 21.588,-59.9102 c -75.702,-6.1492 -138.196,-60.9363 -156.014,-132.8554 -85.098,-0.1572 -170.197,-0.28312 -255.295,-0.40239 z"
               transform="translate(-2.2047244e-4)" /><g
               id="g2"
               style="fill:#5fae23;fill-opacity:1;stroke-width:1.00157;stroke-dasharray:none"><path
                 id="path27-0"
                 d="m 17499.361,962.11107 v 0 c 2.021,71.59323 59.853,129.40663 131.439,131.44433 -2.024,-71.5933 -59.851,-129.40673 -131.439,-131.44433"
                 style="fill:#5fae23;fill-opacity:1;fill-rule:nonzero;stroke:none;stroke-width:1.00157;stroke-linecap:square;stroke-linejoin:miter;stroke-dasharray:none;stroke-opacity:1;paint-order:markers stroke fill" /><path
                 id="path28-2"
                 d="m 17724.123,1000.2043 v 0 c -50.831,1.4506 -91.887,42.514 -93.323,93.3511 50.826,-1.4506 91.887,-42.514 93.323,-93.3511"
                 style="fill:#5fae23;fill-opacity:1;fill-rule:nonzero;stroke:none;stroke-width:1.00157;stroke-linecap:square;stroke-dasharray:none;stroke-opacity:1;paint-order:fill markers stroke" /></g><g
               id="g1"
               style="fill:#000000;fill-opacity:1;stroke-width:1.00157;stroke-dasharray:none"><path
                 id="path29-3"
                 d="m 17556.059,1294.8899 c 0,18.7546 -15.202,33.9562 -33.956,33.9562 -18.751,0 -33.956,-15.2016 -33.956,-33.9562 0,-18.7544 15.205,-33.9562 33.956,-33.9562 18.754,0 33.956,15.2018 33.956,33.9562"
                 style="fill:#000000;fill-opacity:1;fill-rule:nonzero;stroke:none;stroke-width:1.00157;stroke-dasharray:none" /><path
                 id="path30-7"
                 d="m 17398.11,1294.8899 c 0,18.7546 -15.202,33.9562 -33.956,33.9562 -18.752,0 -33.956,-15.2016 -33.956,-33.9562 0,-18.7544 15.204,-33.9562 33.956,-33.9562 18.754,0 33.956,15.2018 33.956,33.9562"
                 style="fill:#000000;fill-opacity:1;fill-rule:nonzero;stroke:none;stroke-width:1.00157;stroke-dasharray:none" /></g></g></g></g></g></g></svg>
